<?xml version="1.0" encoding="utf-8"?>
<!-- Generator: Adobe Illustrator 16.0.0, SVG Export Plug-In . SVG Version: 6.00 Build 0)  -->
<!DOCTYPE svg PUBLIC "-//W3C//DTD SVG 1.1//EN" "http://www.w3.org/Graphics/SVG/1.1/DTD/svg11.dtd">
<svg version="1.1" xmlns="http://www.w3.org/2000/svg" xmlns:xlink="http://www.w3.org/1999/xlink" x="0px" y="0px"
	 width="675.08px" height="675.08px" viewBox="0 0 675.08 675.08" enable-background="new 0 0 675.08 675.08" xml:space="preserve">
<g id="Layer_1">
</g>
<g id="Layer_2">
</g>
<g id="Layer_4">
</g>
<g id="Layer_3">
	<g>
		<g>
			<rect x="235.949" y="122.855" fill="#007BC1" width="61.358" height="61.357"/>
			<g>
				<rect x="235.949" y="245.57" width="61.358" height="184.076"/>
				<path d="M235.949,491.004h53.767c83.626-0.037,127.75-61.375,127.75-120.16c0-66.469-43.461-125.273-120.159-125.273v-61.357
					c117.299,0,184.076,97.149,184.076,184.073c0,115.049-94.594,184.077-189.188,184.077v-0.002h-56.246V491.004z"/>
			</g>
		</g>
		<rect x="0.002" y="0.003" fill="none" width="675.077" height="675.077"/>
	</g>
</g>
<g id="Layer_6" display="none">
	<g display="inline">
		<g>
			<g>
				<polyline fill="none" stroke="#FF0000" stroke-width="3" stroke-miterlimit="10" points="61.36,67.36 61.36,61.36 55.36,61.36 
									"/>
				
					<line fill="none" stroke="#FF0000" stroke-width="3" stroke-miterlimit="10" stroke-dasharray="9.8716,9.8716" x1="45.489" y1="61.36" x2="10.938" y2="61.36"/>
				<polyline fill="none" stroke="#FF0000" stroke-width="3" stroke-miterlimit="10" points="6.002,61.36 0.002,61.36 0.002,67.36 
									"/>
				
					<line fill="none" stroke="#FF0000" stroke-width="3" stroke-miterlimit="10" stroke-dasharray="9.8715,9.8715" x1="0.002" y1="77.232" x2="0.002" y2="111.782"/>
				<polyline fill="none" stroke="#FF0000" stroke-width="3" stroke-miterlimit="10" points="0.002,116.718 0.002,122.718 
					6.002,122.718 				"/>
				
					<line fill="none" stroke="#FF0000" stroke-width="3" stroke-miterlimit="10" stroke-dasharray="9.8716,9.8716" x1="15.874" y1="122.718" x2="50.425" y2="122.718"/>
				<polyline fill="none" stroke="#FF0000" stroke-width="3" stroke-miterlimit="10" points="55.36,122.718 61.36,122.718 
					61.36,116.718 				"/>
				
					<line fill="none" stroke="#FF0000" stroke-width="3" stroke-miterlimit="10" stroke-dasharray="9.8715,9.8715" x1="61.36" y1="106.846" x2="61.36" y2="72.296"/>
			</g>
		</g>
		<g>
			<g>
				<polyline fill="none" stroke="#FF0000" stroke-width="3" stroke-miterlimit="10" points="61.36,6.003 61.36,0.003 55.36,0.003 
									"/>
				
					<line fill="none" stroke="#FF0000" stroke-width="3" stroke-miterlimit="10" stroke-dasharray="9.8716,9.8716" x1="45.489" y1="0.003" x2="10.938" y2="0.003"/>
				<polyline fill="none" stroke="#FF0000" stroke-width="3" stroke-miterlimit="10" points="6.002,0.003 0.002,0.003 0.002,6.003 
									"/>
				
					<line fill="none" stroke="#FF0000" stroke-width="3" stroke-miterlimit="10" stroke-dasharray="9.8715,9.8715" x1="0.002" y1="15.875" x2="0.002" y2="50.425"/>
				<polyline fill="none" stroke="#FF0000" stroke-width="3" stroke-miterlimit="10" points="0.002,55.36 0.002,61.36 6.002,61.36 
									"/>
				
					<line fill="none" stroke="#FF0000" stroke-width="3" stroke-miterlimit="10" stroke-dasharray="9.8716,9.8716" x1="15.874" y1="61.36" x2="50.425" y2="61.36"/>
				<polyline fill="none" stroke="#FF0000" stroke-width="3" stroke-miterlimit="10" points="55.36,61.36 61.36,61.36 61.36,55.36 
									"/>
				
					<line fill="none" stroke="#FF0000" stroke-width="3" stroke-miterlimit="10" stroke-dasharray="9.8715,9.8715" x1="61.36" y1="45.488" x2="61.36" y2="10.938"/>
			</g>
		</g>
		<g>
			<g>
				<polyline fill="none" stroke="#FF0000" stroke-width="3" stroke-miterlimit="10" points="599.085,67.36 599.085,61.36 
					593.085,61.36 				"/>
				
					<line fill="none" stroke="#FF0000" stroke-width="3" stroke-miterlimit="10" stroke-dasharray="9.8715,9.8715" x1="583.214" y1="61.36" x2="548.663" y2="61.36"/>
				<polyline fill="none" stroke="#FF0000" stroke-width="3" stroke-miterlimit="10" points="543.728,61.36 537.728,61.36 
					537.728,67.36 				"/>
				
					<line fill="none" stroke="#FF0000" stroke-width="3" stroke-miterlimit="10" stroke-dasharray="9.8715,9.8715" x1="537.728" y1="77.232" x2="537.728" y2="111.782"/>
				<polyline fill="none" stroke="#FF0000" stroke-width="3" stroke-miterlimit="10" points="537.728,116.718 537.728,122.718 
					543.728,122.718 				"/>
				
					<line fill="none" stroke="#FF0000" stroke-width="3" stroke-miterlimit="10" stroke-dasharray="9.8715,9.8715" x1="553.599" y1="122.718" x2="588.149" y2="122.718"/>
				<polyline fill="none" stroke="#FF0000" stroke-width="3" stroke-miterlimit="10" points="593.085,122.718 599.085,122.718 
					599.085,116.718 				"/>
				
					<line fill="none" stroke="#FF0000" stroke-width="3" stroke-miterlimit="10" stroke-dasharray="9.8715,9.8715" x1="599.085" y1="106.846" x2="599.085" y2="72.296"/>
			</g>
		</g>
		<g>
			<g>
				<polyline fill="none" stroke="#FF0000" stroke-width="3" stroke-miterlimit="10" points="599.085,6.003 599.085,0.003 
					593.085,0.003 				"/>
				
					<line fill="none" stroke="#FF0000" stroke-width="3" stroke-miterlimit="10" stroke-dasharray="9.8715,9.8715" x1="583.214" y1="0.003" x2="548.663" y2="0.003"/>
				<polyline fill="none" stroke="#FF0000" stroke-width="3" stroke-miterlimit="10" points="543.728,0.003 537.728,0.003 
					537.728,6.003 				"/>
				
					<line fill="none" stroke="#FF0000" stroke-width="3" stroke-miterlimit="10" stroke-dasharray="9.8715,9.8715" x1="537.728" y1="15.875" x2="537.728" y2="50.425"/>
				<polyline fill="none" stroke="#FF0000" stroke-width="3" stroke-miterlimit="10" points="537.728,55.36 537.728,61.36 
					543.728,61.36 				"/>
				
					<line fill="none" stroke="#FF0000" stroke-width="3" stroke-miterlimit="10" stroke-dasharray="9.8715,9.8715" x1="553.599" y1="61.36" x2="588.149" y2="61.36"/>
				<polyline fill="none" stroke="#FF0000" stroke-width="3" stroke-miterlimit="10" points="593.085,61.36 599.085,61.36 
					599.085,55.36 				"/>
				
					<line fill="none" stroke="#FF0000" stroke-width="3" stroke-miterlimit="10" stroke-dasharray="9.8715,9.8715" x1="599.085" y1="45.488" x2="599.085" y2="10.938"/>
			</g>
		</g>
		<g>
			<g>
				<polyline fill="none" stroke="#FF0000" stroke-width="3" stroke-miterlimit="10" points="61.36,619.721 61.36,613.721 
					55.36,613.721 				"/>
				
					<line fill="none" stroke="#FF0000" stroke-width="3" stroke-miterlimit="10" stroke-dasharray="9.8715,9.8715" x1="45.488" y1="613.721" x2="10.938" y2="613.721"/>
				<polyline fill="none" stroke="#FF0000" stroke-width="3" stroke-miterlimit="10" points="6.002,613.721 0.002,613.721 
					0.002,619.721 				"/>
				
					<line fill="none" stroke="#FF0000" stroke-width="3" stroke-miterlimit="10" stroke-dasharray="9.8715,9.8715" x1="0.002" y1="629.592" x2="0.002" y2="664.143"/>
				<polyline fill="none" stroke="#FF0000" stroke-width="3" stroke-miterlimit="10" points="0.002,669.078 0.002,675.078 
					6.002,675.078 				"/>
				
					<line fill="none" stroke="#FF0000" stroke-width="3" stroke-miterlimit="10" stroke-dasharray="9.8715,9.8715" x1="15.874" y1="675.078" x2="50.424" y2="675.078"/>
				<polyline fill="none" stroke="#FF0000" stroke-width="3" stroke-miterlimit="10" points="55.36,675.078 61.36,675.078 
					61.36,669.078 				"/>
				
					<line fill="none" stroke="#FF0000" stroke-width="3" stroke-miterlimit="10" stroke-dasharray="9.8715,9.8715" x1="61.36" y1="659.207" x2="61.36" y2="624.656"/>
			</g>
		</g>
		<g>
			<g>
				<polyline fill="none" stroke="#FF0000" stroke-width="3" stroke-miterlimit="10" points="61.36,558.363 61.36,552.363 
					55.36,552.363 				"/>
				
					<line fill="none" stroke="#FF0000" stroke-width="3" stroke-miterlimit="10" stroke-dasharray="9.8715,9.8715" x1="45.488" y1="552.363" x2="10.938" y2="552.363"/>
				<polyline fill="none" stroke="#FF0000" stroke-width="3" stroke-miterlimit="10" points="6.002,552.363 0.002,552.363 
					0.002,558.363 				"/>
				
					<line fill="none" stroke="#FF0000" stroke-width="3" stroke-miterlimit="10" stroke-dasharray="9.8715,9.8715" x1="0.002" y1="568.234" x2="0.002" y2="602.785"/>
				<polyline fill="none" stroke="#FF0000" stroke-width="3" stroke-miterlimit="10" points="0.002,607.721 0.002,613.721 
					6.002,613.721 				"/>
				
					<line fill="none" stroke="#FF0000" stroke-width="3" stroke-miterlimit="10" stroke-dasharray="9.8715,9.8715" x1="15.874" y1="613.721" x2="50.424" y2="613.721"/>
				<polyline fill="none" stroke="#FF0000" stroke-width="3" stroke-miterlimit="10" points="55.36,613.721 61.36,613.721 
					61.36,607.721 				"/>
				
					<line fill="none" stroke="#FF0000" stroke-width="3" stroke-miterlimit="10" stroke-dasharray="9.8715,9.8715" x1="61.36" y1="597.85" x2="61.36" y2="563.299"/>
			</g>
		</g>
		<g>
			<g>
				<polyline fill="none" stroke="#FF0000" stroke-width="3" stroke-miterlimit="10" points="122.717,619.721 122.717,613.721 
					116.717,613.721 				"/>
				
					<line fill="none" stroke="#FF0000" stroke-width="3" stroke-miterlimit="10" stroke-dasharray="9.8715,9.8715" x1="106.846" y1="613.721" x2="72.295" y2="613.721"/>
				<polyline fill="none" stroke="#FF0000" stroke-width="3" stroke-miterlimit="10" points="67.36,613.721 61.36,613.721 
					61.36,619.721 				"/>
				
					<line fill="none" stroke="#FF0000" stroke-width="3" stroke-miterlimit="10" stroke-dasharray="9.8715,9.8715" x1="61.36" y1="629.592" x2="61.36" y2="664.143"/>
				<polyline fill="none" stroke="#FF0000" stroke-width="3" stroke-miterlimit="10" points="61.36,669.078 61.36,675.078 
					67.36,675.078 				"/>
				
					<line fill="none" stroke="#FF0000" stroke-width="3" stroke-miterlimit="10" stroke-dasharray="9.8715,9.8715" x1="77.231" y1="675.078" x2="111.782" y2="675.078"/>
				<polyline fill="none" stroke="#FF0000" stroke-width="3" stroke-miterlimit="10" points="116.717,675.078 122.717,675.078 
					122.717,669.078 				"/>
				
					<line fill="none" stroke="#FF0000" stroke-width="3" stroke-miterlimit="10" stroke-dasharray="9.8715,9.8715" x1="122.717" y1="659.207" x2="122.717" y2="624.656"/>
			</g>
		</g>
		<g>
			<g>
				<polyline fill="none" stroke="#FF0000" stroke-width="3" stroke-miterlimit="10" points="184.075,619.721 184.075,613.721 
					178.075,613.721 				"/>
				
					<line fill="none" stroke="#FF0000" stroke-width="3" stroke-miterlimit="10" stroke-dasharray="9.8715,9.8715" x1="168.203" y1="613.721" x2="133.653" y2="613.721"/>
				<polyline fill="none" stroke="#FF0000" stroke-width="3" stroke-miterlimit="10" points="128.717,613.721 122.717,613.721 
					122.717,619.721 				"/>
				
					<line fill="none" stroke="#FF0000" stroke-width="3" stroke-miterlimit="10" stroke-dasharray="9.8715,9.8715" x1="122.717" y1="629.592" x2="122.717" y2="664.143"/>
				<polyline fill="none" stroke="#FF0000" stroke-width="3" stroke-miterlimit="10" points="122.717,669.078 122.717,675.078 
					128.717,675.078 				"/>
				
					<line fill="none" stroke="#FF0000" stroke-width="3" stroke-miterlimit="10" stroke-dasharray="9.8715,9.8715" x1="138.589" y1="675.078" x2="173.139" y2="675.078"/>
				<polyline fill="none" stroke="#FF0000" stroke-width="3" stroke-miterlimit="10" points="178.075,675.078 184.075,675.078 
					184.075,669.078 				"/>
				
					<line fill="none" stroke="#FF0000" stroke-width="3" stroke-miterlimit="10" stroke-dasharray="9.8715,9.8715" x1="184.075" y1="659.207" x2="184.075" y2="624.656"/>
			</g>
		</g>
		<g>
			<g>
				<polyline fill="none" stroke="#FF0000" stroke-width="3" stroke-miterlimit="10" points="245.432,619.721 245.432,613.721 
					239.432,613.721 				"/>
				
					<line fill="none" stroke="#FF0000" stroke-width="3" stroke-miterlimit="10" stroke-dasharray="9.8715,9.8715" x1="229.561" y1="613.721" x2="195.01" y2="613.721"/>
				<polyline fill="none" stroke="#FF0000" stroke-width="3" stroke-miterlimit="10" points="190.075,613.721 184.075,613.721 
					184.075,619.721 				"/>
				
					<line fill="none" stroke="#FF0000" stroke-width="3" stroke-miterlimit="10" stroke-dasharray="9.8715,9.8715" x1="184.075" y1="629.592" x2="184.075" y2="664.143"/>
				<polyline fill="none" stroke="#FF0000" stroke-width="3" stroke-miterlimit="10" points="184.075,669.078 184.075,675.078 
					190.075,675.078 				"/>
				
					<line fill="none" stroke="#FF0000" stroke-width="3" stroke-miterlimit="10" stroke-dasharray="9.8715,9.8715" x1="199.946" y1="675.078" x2="234.497" y2="675.078"/>
				<polyline fill="none" stroke="#FF0000" stroke-width="3" stroke-miterlimit="10" points="239.432,675.078 245.432,675.078 
					245.432,669.078 				"/>
				
					<line fill="none" stroke="#FF0000" stroke-width="3" stroke-miterlimit="10" stroke-dasharray="9.8715,9.8715" x1="245.432" y1="659.207" x2="245.432" y2="624.656"/>
			</g>
		</g>
		<g>
			<g>
				<polyline fill="none" stroke="#FF0000" stroke-width="3" stroke-miterlimit="10" points="613.583,619.721 613.583,613.721 
					607.583,613.721 				"/>
				
					<line fill="none" stroke="#FF0000" stroke-width="3" stroke-miterlimit="10" stroke-dasharray="9.8719,9.8719" x1="597.711" y1="613.721" x2="563.159" y2="613.721"/>
				<polyline fill="none" stroke="#FF0000" stroke-width="3" stroke-miterlimit="10" points="558.224,613.721 552.224,613.721 
					552.224,619.721 				"/>
				
					<line fill="none" stroke="#FF0000" stroke-width="3" stroke-miterlimit="10" stroke-dasharray="9.8715,9.8715" x1="552.224" y1="629.592" x2="552.224" y2="664.143"/>
				<polyline fill="none" stroke="#FF0000" stroke-width="3" stroke-miterlimit="10" points="552.224,669.078 552.224,675.078 
					558.224,675.078 				"/>
				
					<line fill="none" stroke="#FF0000" stroke-width="3" stroke-miterlimit="10" stroke-dasharray="9.8719,9.8719" x1="568.096" y1="675.078" x2="602.647" y2="675.078"/>
				<polyline fill="none" stroke="#FF0000" stroke-width="3" stroke-miterlimit="10" points="607.583,675.078 613.583,675.078 
					613.583,669.078 				"/>
				
					<line fill="none" stroke="#FF0000" stroke-width="3" stroke-miterlimit="10" stroke-dasharray="9.8715,9.8715" x1="613.583" y1="659.207" x2="613.583" y2="624.656"/>
			</g>
		</g>
		<g>
			<g>
				<polyline fill="none" stroke="#FF0000" stroke-width="3" stroke-miterlimit="10" points="676.075,619.721 676.075,613.721 
					670.075,613.721 				"/>
				
					<line fill="none" stroke="#FF0000" stroke-width="3" stroke-miterlimit="10" stroke-dasharray="9.8719,9.8719" x1="660.203" y1="613.721" x2="625.651" y2="613.721"/>
				<polyline fill="none" stroke="#FF0000" stroke-width="3" stroke-miterlimit="10" points="620.716,613.721 614.716,613.721 
					614.716,619.721 				"/>
				
					<line fill="none" stroke="#FF0000" stroke-width="3" stroke-miterlimit="10" stroke-dasharray="9.8715,9.8715" x1="614.716" y1="629.592" x2="614.716" y2="664.143"/>
				<polyline fill="none" stroke="#FF0000" stroke-width="3" stroke-miterlimit="10" points="614.716,669.078 614.716,675.078 
					620.716,675.078 				"/>
				
					<line fill="none" stroke="#FF0000" stroke-width="3" stroke-miterlimit="10" stroke-dasharray="9.8719,9.8719" x1="630.588" y1="675.078" x2="665.14" y2="675.078"/>
				<polyline fill="none" stroke="#FF0000" stroke-width="3" stroke-miterlimit="10" points="670.075,675.078 676.075,675.078 
					676.075,669.078 				"/>
				
					<line fill="none" stroke="#FF0000" stroke-width="3" stroke-miterlimit="10" stroke-dasharray="9.8715,9.8715" x1="676.075" y1="659.207" x2="676.075" y2="624.656"/>
			</g>
		</g>
		<g>
			<g>
				<polyline fill="none" stroke="#FF0000" stroke-width="3" stroke-miterlimit="10" points="552.224,619.721 552.224,613.721 
					546.224,613.721 				"/>
				
					<line fill="none" stroke="#FF0000" stroke-width="3" stroke-miterlimit="10" stroke-dasharray="9.8715,9.8715" x1="536.353" y1="613.721" x2="501.802" y2="613.721"/>
				<polyline fill="none" stroke="#FF0000" stroke-width="3" stroke-miterlimit="10" points="496.866,613.721 490.866,613.721 
					490.866,619.721 				"/>
				
					<line fill="none" stroke="#FF0000" stroke-width="3" stroke-miterlimit="10" stroke-dasharray="9.8715,9.8715" x1="490.866" y1="629.592" x2="490.866" y2="664.143"/>
				<polyline fill="none" stroke="#FF0000" stroke-width="3" stroke-miterlimit="10" points="490.866,669.078 490.866,675.078 
					496.866,675.078 				"/>
				
					<line fill="none" stroke="#FF0000" stroke-width="3" stroke-miterlimit="10" stroke-dasharray="9.8715,9.8715" x1="506.737" y1="675.078" x2="541.288" y2="675.078"/>
				<polyline fill="none" stroke="#FF0000" stroke-width="3" stroke-miterlimit="10" points="546.224,675.078 552.224,675.078 
					552.224,669.078 				"/>
				
					<line fill="none" stroke="#FF0000" stroke-width="3" stroke-miterlimit="10" stroke-dasharray="9.8715,9.8715" x1="552.224" y1="659.207" x2="552.224" y2="624.656"/>
			</g>
		</g>
	</g>
</g>
<g id="Layer_5" display="none">
</g>
</svg>
